<svg width="186" height="54" viewBox="0 0 186 54" fill="none" xmlns="http://www.w3.org/2000/svg">
<path d="M13.5 5L24.2599 39.9148H24.6108L33.7699 11.1818H42.6335L29.5966 49H19.2926L0.5 0L13.5 5Z" fill="#1714B5"/>
<path d="M42.6335 53.5L47.0376 20.6364H54.9041V49L42.6335 53.5ZM50.9893 16.9801C49.8198 16.9801 48.8165 16.5923 47.9794 15.8168C47.1546 15.0289 46.7422 14.0871 46.7422 12.9915C46.7422 11.9081 47.1546 10.9787 47.9794 10.2031C48.8165 9.41524 49.8198 9.0213 50.9893 9.0213C52.1588 9.0213 53.156 9.41524 53.9808 10.2031C54.8179 10.9787 55.2365 11.9081 55.2365 12.9915C55.2365 14.0871 54.8179 15.0289 53.9808 15.8168C53.156 16.5923 52.1588 16.9801 50.9893 16.9801Z" fill="#1714B5"/>
<path d="M61.2056 49V15.8168L68.832 20.6364V25.5852H69.1275C69.6445 23.8248 70.5124 22.4953 71.7312 21.5966C72.9499 20.6856 74.3533 20.2301 75.9414 20.2301C76.3353 20.2301 76.7601 20.2547 77.2156 20.304C77.671 20.3532 78.0711 20.4209 78.4158 20.5071V27.4872C78.0465 27.3764 77.5356 27.2779 76.8832 27.1918C76.2307 27.1056 75.6336 27.0625 75.092 27.0625C73.9348 27.0625 72.9007 27.3149 71.9897 27.8196C71.091 28.312 70.377 29.0014 69.8477 29.8878C69.3306 30.7741 69.0721 31.7959 69.0721 32.9531L71.7312 53.5L61.2056 49Z" fill="#1714B5"/>
<path d="M89.7585 49.5355C87.9489 49.5355 86.3362 49.2216 84.9205 48.5937C83.5047 47.9536 82.3845 47.0118 81.5597 45.7685C80.7472 44.5128 80.3409 42.9493 80.3409 41.0781C80.3409 39.5024 80.6302 38.179 81.2088 37.108C81.7874 36.0369 82.5753 35.1752 83.5724 34.5227C84.5696 33.8703 85.7022 33.3778 86.9702 33.0455C88.2505 32.7131 89.5923 32.4792 90.9957 32.3437C92.6454 32.1714 93.9749 32.0114 94.9844 31.8636C95.9938 31.7036 96.7263 31.4697 97.1818 31.1619C97.6373 30.8542 97.8651 30.3987 97.8651 29.7955V29.6847C97.8651 28.5151 97.4957 27.6103 96.7571 26.9702C96.0308 26.33 94.9967 26.0099 93.6548 26.0099C92.2391 26.0099 91.1127 26.3239 90.2756 26.9517C89.4384 27.5672 88.8845 28.3428 88.6136 29.2784L81.3381 28.6875C81.7074 26.964 86.6255 18.2358 87.7088 16.9801C88.7921 15.7121 85.9976 21.9782 87.7088 21.3011C89.4323 20.6117 91.4266 20.267 93.6918 20.267C95.2675 20.267 96.7756 20.4517 98.2159 20.821C99.6686 21.1903 100.955 21.7628 102.075 22.5383C103.208 23.3139 104.1 24.3111 104.753 25.5298C105.405 26.7363 105.732 28.1828 105.732 29.8693L100.5 51.5L98.2713 49V45.0668H98.0497C97.5942 45.9531 96.9848 46.7348 96.2216 47.4119C95.4583 48.0767 94.5412 48.5999 93.4702 48.9815C92.3991 49.3508 91.1619 49.5355 89.7585 49.5355ZM92.0114 44.1065C93.1686 44.1065 94.1903 43.8788 95.0767 43.4233C95.9631 42.9555 96.6586 42.3276 97.1634 41.5398C97.6681 40.7519 97.9205 39.8594 97.9205 38.8622V35.8523C97.6742 36.0123 97.3357 36.16 96.9048 36.2955C96.4863 36.4186 96.0123 36.5355 95.483 36.6463C94.9536 36.7448 94.4242 36.8371 93.8949 36.9233C93.3655 36.9972 92.8854 37.0649 92.4545 37.1264C91.5312 37.2618 90.7249 37.4773 90.0355 37.7727C89.3461 38.0682 88.8106 38.4683 88.429 38.973C88.0473 39.4654 87.8565 40.081 87.8565 40.8196C87.8565 41.8906 88.2443 42.7093 89.0199 43.2756C89.8078 43.8295 90.8049 44.1065 92.0114 44.1065Z" fill="#1714B5"/>
<path d="M119.701 11.1818V49L111.835 37.7727V11.1818H119.701Z" fill="#1714B5"/>
<path d="M144.168 47.4119L136.136 49L149.191 11.1818H159.495L172.532 49L164.407 45.7685L154.491 19.8239L154.343 11.1818L144.168 47.4119ZM144.168 34.1349H164.407V40.3764H144.168V34.1349Z" fill="#1714B5"/>
<path d="M178.03 41.5398L177.088 20.6364H184.955V49L178.03 41.5398ZM181.04 16.9801C179.871 16.9801 178.867 16.5923 178.03 15.8168C177.205 15.0289 176.793 14.0871 176.793 12.9915C176.793 11.9081 177.205 10.9787 178.03 10.2031C178.867 9.41524 179.871 9.0213 181.04 9.0213C182.21 9.0213 183.207 9.41524 184.032 10.2031C184.869 10.9787 185.287 11.9081 185.287 12.9915C185.287 14.0871 184.869 15.0289 184.032 15.8168C183.207 16.5923 182.21 16.9801 181.04 16.9801Z" fill="#1714B5"/>
</svg>
